<?xml version="1.0" standalone="no"?>
<!DOCTYPE svg PUBLIC "-//W3C//DTD SVG 20010904//EN"
 "http://www.w3.org/TR/2001/REC-SVG-20010904/DTD/svg10.dtd">
<svg version="1.0" xmlns="http://www.w3.org/2000/svg"
 width="1216.000000pt" height="1216.000000pt" viewBox="0 0 1216.000000 1216.000000"
 preserveAspectRatio="xMidYMid meet">
<metadata>
Created by potrace 1.14, written by Peter Selinger 2001-2017
</metadata>
<g transform="translate(0.000000,1216.000000) scale(0.100000,-0.100000)"
fill="#000000" stroke="none">
<path d="M3380 12150 c0 -6 -17 -28 -37 -49 -41 -42 -196 -210 -225 -243 -15
-17 -76 -84 -218 -238 -14 -15 -63 -69 -110 -120 -102 -111 -132 -144 -232
-252 -110 -120 -118 -129 -136 -168 -16 -32 -17 -243 -16 -2730 0 -2478 4
-3213 20 -4280 3 -212 7 -478 8 -593 2 -114 5 -209 7 -212 3 -2 2 -32 -1 -65
-3 -33 -4 -63 -2 -65 3 -2 6 -84 8 -180 7 -390 28 -1053 39 -1210 7 -112 34
-231 72 -316 26 -58 73 -119 92 -119 6 0 11 -4 11 -8 0 -12 68 -33 110 -35 54
-2 133 12 195 33 54 19 185 79 195 90 3 3 22 14 43 25 38 20 269 188 305 222
11 10 52 48 93 85 41 36 115 106 165 155 51 48 174 167 274 263 100 96 210
202 244 235 34 33 97 92 140 130 43 39 91 81 106 95 15 14 55 49 88 79 34 29
74 65 90 80 15 14 59 53 96 86 38 33 85 75 105 94 20 18 58 52 84 75 27 22 61
52 76 66 15 14 62 57 106 95 43 39 103 93 133 120 30 28 64 58 76 68 11 10 50
44 86 76 36 32 82 74 104 92 21 19 53 48 70 64 18 17 62 55 97 86 35 31 76 67
90 80 14 13 51 47 83 74 31 28 74 66 94 85 21 19 66 60 101 90 35 30 81 72
103 92 22 21 42 38 44 38 3 0 17 12 32 27 29 29 80 75 196 178 101 88 224 203
416 385 90 86 344 326 395 375 97 92 317 299 362 343 27 26 118 112 203 192
84 80 183 173 219 208 36 35 113 108 171 162 58 54 137 129 176 167 39 37 127
121 195 185 68 64 173 164 234 222 60 57 111 103 113 101 2 -1 5 -236 7 -521
6 -748 15 -1710 21 -2304 3 -283 5 -524 4 -535 -1 -11 -1 -24 -1 -30 0 -15 9
-962 16 -1710 3 -363 7 -680 9 -705 6 -91 28 -118 380 -474 185 -186 336 -337
337 -335 1 5 5 1818 13 5757 4 2218 3 2871 -6 2866 -7 -4 -62 -56 -123 -115
-60 -59 -153 -148 -205 -199 -52 -50 -207 -201 -345 -335 -378 -368 -446 -434
-661 -642 -110 -105 -246 -237 -304 -293 -58 -56 -206 -199 -329 -318 -124
-119 -261 -253 -306 -297 -46 -44 -178 -172 -295 -285 -326 -315 -351 -339
-605 -585 -130 -126 -267 -259 -304 -295 -38 -36 -182 -175 -321 -310 -139
-135 -281 -272 -315 -305 -34 -33 -165 -160 -291 -282 -126 -121 -277 -268
-336 -325 -59 -56 -209 -202 -334 -323 -232 -224 -274 -265 -599 -580 -103
-99 -228 -220 -279 -270 -189 -184 -363 -350 -382 -367 -19 -16 -19 47 -19
4784 0 2640 -3 4802 -7 4804 -5 3 -8 0 -8 -6z"/>
<path d="M3833 7281 c0 -1936 2 -3521 4 -3521 3 0 17 12 32 27 16 16 124 120
241 233 117 113 243 234 280 270 38 36 159 153 271 260 111 107 232 224 269
260 37 36 156 151 265 255 109 105 242 233 296 285 108 105 442 427 524 505
29 28 124 119 211 203 88 85 211 204 275 265 63 62 214 207 334 322 261 252
284 274 555 535 117 113 243 234 280 270 37 36 157 151 265 255 109 105 232
224 275 265 110 107 460 444 555 534 l80 77 0 534 c1 294 -3 535 -7 535 -4 0
-20 -12 -36 -27 -24 -24 -145 -134 -240 -221 -15 -14 -74 -69 -132 -123 -58
-54 -117 -107 -130 -119 -14 -12 -70 -63 -125 -114 -55 -51 -112 -104 -127
-117 -40 -36 -208 -190 -238 -219 -63 -59 -233 -216 -250 -230 -19 -16 -204
-187 -255 -235 -18 -16 -72 -66 -120 -110 -49 -44 -104 -95 -124 -114 -40 -37
-198 -182 -240 -220 -14 -13 -58 -54 -97 -90 -39 -36 -116 -106 -170 -156 -54
-49 -111 -102 -127 -117 -16 -15 -63 -58 -104 -95 -41 -37 -98 -90 -128 -118
-29 -27 -90 -84 -135 -125 -46 -41 -95 -86 -110 -100 -56 -52 -216 -199 -245
-225 -16 -16 -77 -71 -134 -124 -124 -114 -145 -133 -251 -231 -46 -41 -104
-95 -130 -120 -26 -25 -78 -72 -115 -105 -37 -33 -91 -82 -120 -110 -28 -27
-89 -84 -135 -125 -46 -41 -115 -105 -154 -142 l-71 -67 -5 2119 -5 2118 -65
69 c-36 37 -101 108 -145 156 -44 49 -98 108 -120 131 -39 43 -57 62 -205 225
-41 45 -107 116 -146 158 l-71 75 0 -3521z"/>
<path d="M6524 3907 c-6 -7 -49 -46 -94 -87 -90 -80 -96 -86 -190 -170 -33
-30 -78 -71 -99 -90 -20 -19 -72 -66 -114 -104 -70 -62 -93 -96 -67 -96 6 0
10 -5 10 -10 0 -6 61 -101 137 -213 189 -280 362 -533 424 -622 20 -27 55 -79
80 -115 24 -36 47 -66 51 -68 5 -2 8 -10 8 -17 0 -7 4 -15 8 -17 5 -1 30 -34
57 -73 27 -38 114 -160 194 -270 124 -171 168 -230 244 -325 7 -8 23 -31 37
-50 13 -19 29 -39 35 -45 6 -5 38 -44 71 -85 74 -93 219 -238 293 -293 31 -23
67 -52 81 -65 14 -12 30 -22 37 -22 7 0 13 -4 13 -9 0 -10 156 -107 224 -139
52 -25 137 -49 198 -56 21 -2 41 -7 46 -10 5 -3 35 -8 68 -11 68 -8 103 -12
159 -19 158 -20 317 -28 313 -16 -2 5 -30 48 -63 95 -79 113 -203 287 -213
300 -4 6 -30 42 -57 80 -27 39 -52 72 -55 75 -3 3 -9 13 -15 22 -5 9 -59 86
-120 170 -60 84 -118 166 -128 182 -10 16 -24 35 -30 42 -7 7 -29 37 -49 66
-62 90 -227 322 -236 333 -4 6 -23 33 -42 60 -18 28 -37 52 -40 55 -4 3 -31
41 -60 85 -29 44 -56 82 -59 85 -14 11 -231 321 -231 330 0 4 -3 10 -7 12 -12
5 -93 116 -93 127 0 5 -3 11 -7 13 -9 4 -41 45 -108 143 -27 39 -52 72 -57 73
-4 2 -8 8 -8 13 0 5 -15 29 -32 53 -18 24 -41 54 -50 67 -9 13 -44 62 -77 109
-33 47 -67 94 -75 105 -8 11 -51 72 -96 135 -203 287 -200 284 -216 267z"/>
</g>
</svg>
