<svg width="16" height="16" viewBox="0 0 16 16" fill="none" xmlns="http://www.w3.org/2000/svg">
<path d="M15.2739 0H0.518564C0.294638 0 0.113159 0.174879 0.113159 0.390662V14.7361C0.113159 14.9519 0.294638 15.1268 0.518564 15.1268H5.42371V15.1233C5.64509 15.1209 5.81471 15.0014 5.82251 14.7993C5.84263 14.2741 5.82842 13.7477 5.82842 13.2398C5.43335 13.2576 5.05619 13.3057 4.68329 13.285C3.86081 13.2393 3.2288 12.9012 2.90103 12.1251C2.70686 11.6653 2.41429 11.2721 1.95865 11.0096C1.87356 10.9606 1.79917 10.8884 1.73406 10.815C1.64897 10.7194 1.66489 10.6211 1.79933 10.5949C1.93496 10.5683 2.08314 10.5497 2.2169 10.5738C2.74221 10.6688 3.10547 10.9863 3.38353 11.4086C3.93336 12.244 4.77968 12.4997 5.73184 12.1139C5.78492 12.0924 5.85241 12.0403 5.86241 11.9927C5.93918 11.6229 6.08261 11.2857 6.37164 10.9901C6.0503 10.9327 5.75265 10.8905 5.46074 10.8253C4.62017 10.6379 3.86504 10.3007 3.31284 9.63099C2.86231 9.0847 2.65629 8.44521 2.56159 7.7646C2.41327 6.69857 2.54603 5.70069 3.30574 4.84879C3.34412 4.80576 3.36493 4.71759 3.34785 4.66398C3.15759 4.06489 3.18666 3.47082 3.37524 2.87841C3.4742 2.56729 3.50175 2.5518 3.83122 2.59515C3.85136 2.59776 3.87096 2.60263 3.89094 2.60591C4.55136 2.7112 5.11981 3.01937 5.67977 3.35022C5.75505 3.39472 5.86971 3.42241 5.95242 3.40302C7.28987 3.09028 8.62477 3.09159 9.96205 3.40417C10.0397 3.42225 10.1434 3.3965 10.2176 3.35903C10.522 3.20567 10.8134 3.02738 11.1218 2.88198C11.4805 2.71299 11.8583 2.58585 12.265 2.59286C12.3362 2.59416 12.4463 2.65967 12.4702 2.72031C12.7149 3.34516 12.7665 3.98191 12.5715 4.63219C12.5507 4.70161 12.5816 4.80054 12.6204 4.86898C12.8128 5.20928 13.0816 5.52333 13.2034 5.8843C13.5746 6.98455 13.4393 8.07406 12.9339 9.10813C12.4709 10.056 11.6121 10.5363 10.5954 10.784C10.2521 10.8677 9.90034 10.9185 9.52995 10.9886C10.0153 11.4772 10.0914 12.0735 10.0828 12.698C10.0739 13.3423 10.0762 13.9867 10.0759 14.6311C10.0757 14.9432 10.2171 15.1156 10.4638 15.1257C10.4637 15.1267 15.6792 15.1267 15.6792 15.1267V0.390662C15.6791 0.174879 15.4977 0 15.2739 0Z" fill="#B3B3B3"/>
</svg>
