<svg width="16" height="15" viewBox="0 0 16 15" fill="none" xmlns="http://www.w3.org/2000/svg">
<path d="M14.2711 0H1.52123C0.743584 0 0.113159 0.6075 0.113159 1.35687V13.6431C0.113159 14.3925 0.743584 15 1.52123 15H14.2711C15.0488 15 15.6792 14.3925 15.6792 13.6431V1.35687C15.6792 0.6075 15.0488 0 14.2711 0ZM4.92995 12.952C4.92995 13.1701 4.7465 13.3469 4.52018 13.3469H2.77589C2.54957 13.3469 2.36612 13.1701 2.36612 12.952V5.90588C2.36612 5.68779 2.54957 5.51101 2.77589 5.51101H4.52018C4.7465 5.51101 4.92995 5.68779 4.92995 5.90588V12.952ZM3.64804 4.84681C2.73286 4.84681 1.99094 4.13187 1.99094 3.24997C1.99094 2.36808 2.73286 1.65314 3.64804 1.65314C4.56321 1.65314 5.30513 2.36808 5.30513 3.24997C5.30513 4.13187 4.56325 4.84681 3.64804 4.84681ZM14.0456 12.9838C14.0456 13.1843 13.8769 13.3469 13.6688 13.3469H11.7971C11.589 13.3469 11.4203 13.1843 11.4203 12.9838V9.67877C11.4203 9.18573 11.5704 7.51826 10.0832 7.51826C8.92965 7.51826 8.69567 8.65959 8.64869 9.17179V12.9838C8.64869 13.1843 8.48003 13.3469 8.27192 13.3469H6.46162C6.25355 13.3469 6.08485 13.1843 6.08485 12.9838V5.87407C6.08485 5.67357 6.25355 5.51101 6.46162 5.51101H8.27192C8.47999 5.51101 8.64869 5.67357 8.64869 5.87407V6.4888C9.07643 5.87022 9.71211 5.39277 11.0656 5.39277C14.0627 5.39277 14.0456 8.09105 14.0456 9.57361V12.9838Z" fill="#B3B3B3"/>
</svg>
