<svg width="23" height="38" viewBox="0 0 23 38" fill="none" xmlns="http://www.w3.org/2000/svg">
<path d="M4.47546 4.23358L6.84004 6.81276L6.84198 6.81471V20.0364L20.1417 7.8058V11.181L4.47741 26.2717V4.23358H4.47546Z" fill="#141414"/>
<path d="M11.0754 27.4326L12.9386 25.749L19.8763 35.5038C19.8763 35.5038 18.0462 35.4043 17.4532 35.1526C16.9283 34.9302 16.0602 34.2571 15.6914 33.8533C14.2809 32.3062 11.0754 27.4326 11.0754 27.4326Z" fill="#141414"/>
<path d="M23 10.7928L3.11183 30.0371V0L0.191233 3.18203C0.0800275 3.30299 0.0175966 3.46102 0.0175966 3.6249C0.00589078 5.95436 -0.0701983 23.6418 0.220496 31.4906C0.24976 32.2885 0.204889 33.8064 0.977473 34.0132C2.07001 34.3078 3.96245 32.4309 3.96245 32.4309L6.12998 30.3434L13.2178 24.0164L22.4635 15.2546L23 10.7928Z" fill="#141414"/>
<path d="M22.9999 10.7869L22.9472 37.8L20.928 35.7593C20.7797 35.609 20.6939 35.4061 20.6919 35.1935L20.4988 13.2061L22.9999 10.7869Z" fill="#141414"/>
</svg>
