<svg width="16" height="15" viewBox="0 0 16 15" fill="none" xmlns="http://www.w3.org/2000/svg">
<path d="M13.434 2.16438C12.259 1.03212 11.0039 1.76496 10.2184 2.52189L6.50846 6.09717L2.79809 9.67253C2.0126 10.4294 1.19045 11.5794 2.4271 12.7709C3.66374 13.9628 4.85715 13.1704 5.64247 12.4135L9.35267 8.8382L13.0629 5.26299C13.8484 4.50599 14.6088 3.29648 13.434 2.16438Z" fill="#B3B3B3"/>
<path d="M6.34466 1.87152L7.91589 3.38553L9.5152 1.84438C9.62378 1.7395 9.73403 1.64217 9.84494 1.55039C9.67745 0.736128 9.19529 0 7.91514 0C6.63257 0 6.15099 0.739019 5.9845 1.55505C6.10416 1.65486 6.22374 1.75492 6.34466 1.87152Z" fill="#B3B3B3"/>
<path d="M9.51441 13.118L7.9161 11.5778L6.3457 13.0909C6.22645 13.2059 6.10779 13.3109 5.98962 13.4096C6.1697 14.2397 6.67936 15 7.91543 15C9.15475 15 9.66374 14.2356 9.84266 13.4029C9.73274 13.3117 9.62266 13.2224 9.51441 13.118Z" fill="#B3B3B3"/>
<path d="M5.67833 5.54187H2.64921C1.53847 5.54187 0.113159 5.87898 0.113159 7.48004C0.113159 8.67469 0.906648 9.16525 1.77097 9.33758C1.8733 9.22379 5.67833 5.54187 5.67833 5.54187Z" fill="#B3B3B3"/>
<path d="M14.066 5.61961C13.9701 5.72706 10.1571 9.4183 10.1571 9.4183H13.1432C14.254 9.4183 15.6793 9.16543 15.6793 7.48013C15.6793 6.24436 14.9126 5.78006 14.066 5.61961Z" fill="#B3B3B3"/>
<path d="M6.6709 4.58372L7.21206 4.06224L5.64183 2.54895C4.85626 1.7921 3.66302 0.999765 2.42637 2.19145C1.51955 3.06529 1.72097 3.91577 2.20196 4.60621C2.34846 4.59569 6.6709 4.58372 6.6709 4.58372Z" fill="#B3B3B3"/>
<path d="M9.16074 10.3765L8.61816 10.8993L10.2176 12.4405C11.0031 13.1975 12.2583 13.9301 13.4331 12.798C14.3098 11.9532 14.1086 11.0659 13.6239 10.355C13.4679 10.3659 9.16074 10.3765 9.16074 10.3765Z" fill="#B3B3B3"/>
</svg>
